<?xml version="1.0" encoding="utf-8"?>
<!-- Generator: Adobe Illustrator 15.1.0, SVG Export Plug-In  -->
<!DOCTYPE svg PUBLIC "-//W3C//DTD SVG 1.1//EN" "http://www.w3.org/Graphics/SVG/1.1/DTD/svg11.dtd" [
	<!ENTITY ns_flows "http://ns.adobe.com/Flows/1.0/">
]>
<svg version="1.1"
	 xmlns="http://www.w3.org/2000/svg" xmlns:xlink="http://www.w3.org/1999/xlink" xmlns:a="http://ns.adobe.com/AdobeSVGViewerExtensions/3.0/"
	 x="0px" y="0px" width="730px" height="103px" viewBox="-1 -15.762 730 103" enable-background="new -1 -15.762 730 103"
	 xml:space="preserve">
<defs>
</defs>
<path fill="#FFFFFF" d="M0,1.628h23.761c5.425,0,8.68,0.326,11.718,2.279c4.883,3.145,5.534,8.137,5.534,13.345v6.835
	c0,9.982-3.581,11.826-9.005,12.912c9.114,1.735,9.765,5.75,9.765,13.997v10.85c0,4.123,0,10.524-5.208,13.996
	c-2.929,1.953-6.836,2.387-12.369,2.387H0V1.628z M14.105,31.898c6.293,0,7.92,0,9.114-0.215c2.821-0.652,3.797-2.93,3.797-6.837
	c0-7.16,0-7.812-0.542-9.113c-0.869-2.496-3.146-3.147-6.727-3.147h-5.643V31.898z M14.105,67.162h5.859
	c5.859,0,8.029-0.652,8.029-7.703v-9.007c0-6.292-1.844-7.487-7.812-7.487h-6.076V67.162z"/>
<path fill="#FFFFFF" d="M83.541,1.519h28.21c13.779,0,13.779,9.223,13.779,16.276v8.245c0,9.765-3.038,11.5-9.874,13.019
	c3.363,0.869,10.416,2.93,10.416,13.238V67.92c0,3.908,0.064,10.308,0.064,10.308H111.81c0,0-0.059-6.185-0.059-8.463V53.382
	c0-5.208,0-8.897-7.378-8.897h-6.727v33.744H83.541V1.519z M97.646,33.526h7.377c6.402,0,6.51-3.471,6.51-7.377v-7.27
	c0-6.293-3.363-6.293-6.51-6.293h-7.377V33.526z"/>
<path fill="#FFFFFF" d="M209.396,61.845c0,5.642-1.084,9.548-4.123,12.586c-4.557,4.773-11.718,5.425-16.817,5.425
	c-17.251,0-21.482-8.246-21.482-18.011V18.988c0-3.255,0.108-9.006,4.014-13.129C173.917,2.712,179.667,0,188.347,0
	c6.944,0,12.369,1.845,15.949,4.774c3.797,3.147,5.099,7.161,5.099,14.539V61.845z M195.182,20.29c0-4.014,0-9.548-6.835-9.548
	c-7.27,0-7.27,5.858-7.27,10.09v38.627c0,4.338,0.217,9.33,7.161,9.33s6.944-5.316,6.944-9.006V20.29z"/>
<path fill="#FFFFFF" d="M278.939,29.621v-9.765c0-5.75-0.977-9.004-7.161-9.004c-6.184,0-6.509,4.882-6.509,8.353v41.013
	c0,4.557,0.759,8.681,7.052,8.681c6.618,0,6.618-4.775,6.618-9.439v-9.983h13.997v10.85c0,6.184,0,19.53-20.832,19.53
	c-4.015,0-10.417-0.76-14.865-3.69c-6.076-4.015-6.076-9.981-6.076-14.212V20.29c0-6.185,0.326-10.417,3.797-14.214
	C260.495,0.109,269.175,0,272.105,0c20.832,0,20.832,12.369,20.832,17.795v11.825H278.939z"/>
<path fill="#FFFFFF" d="M360.746,29.621v-9.765c0-5.75-0.977-9.004-7.161-9.004s-6.51,4.882-6.51,8.353v41.013
	c0,4.557,0.76,8.681,7.051,8.681c6.62,0,6.62-4.775,6.62-9.439v-9.983h13.997v10.85c0,6.184,0,19.53-20.833,19.53
	c-4.014,0-10.416-0.76-14.864-3.69c-6.076-4.015-6.076-9.981-6.076-14.212V20.29c0-6.185,0.325-10.417,3.798-14.214
	C342.301,0.109,350.98,0,353.91,0c20.833,0,20.833,12.369,20.833,17.795v11.825H360.746z"/>
<path fill="#FFFFFF" d="M457.09,61.845c0,5.642-1.084,9.548-4.123,12.586c-4.557,4.773-11.719,5.425-16.816,5.425
	c-17.252,0-21.484-8.246-21.484-18.011V18.988c0-3.255,0.109-9.006,4.016-13.129C421.612,2.712,427.362,0,436.042,0
	c6.943,0,12.369,1.845,15.947,4.774c3.799,3.147,5.102,7.161,5.102,14.539V61.845z M442.875,20.29c0-4.014,0-9.548-6.834-9.548
	c-7.27,0-7.27,5.858-7.27,10.09v38.627c0,4.338,0.217,9.33,7.16,9.33s6.943-5.316,6.943-9.006V20.29z"/>
<path fill="#FFFFFF" d="M499.401,1.628h13.996v64.99h20.832v11.61h-34.828V1.628z"/>
<path fill="#FFFFFF" d="M569.379,1.628h13.996v76.6h-13.996V1.628z"/>
<path fill="#FFFFFF" d="M670.391,78.228h-17.793l-13.672-57.396l1.301,57.396h-13.236v-76.6h18.119l13.779,56.203l-1.41-56.203
	h12.912V78.228z"/>
<path fill="#FFFFFF" d="M714.004,1.628H728v76.6h-13.996V1.628z"/>
</svg>
