<?xml version="1.0" encoding="utf-8"?>
<!-- Generator: Adobe Illustrator 22.1.0, SVG Export Plug-In . SVG Version: 6.00 Build 0)  -->
<svg version="1.1" id="Layer_1" xmlns="http://www.w3.org/2000/svg" xmlns:xlink="http://www.w3.org/1999/xlink" x="0px" y="0px"
	 viewBox="0 0 250 250" style="enable-background:new 0 0 250 250;" xml:space="preserve">
<style type="text/css">
	.st0{fill:#56504B;}
	.st1{fill:#F0B031;}
</style>
<path class="st0" d="M165.2,57.2c41.2,29.5,51.5,54.3,45.5,71c-11.1,30.9-78.1,34-109.9-12c-2.8-4-5.3-8.4-7.5-13.2
	c-4.1,3.8-5.4,8.9-4.4,14.6c5,28.7,67,73.5,111,49.6c13.9-7.5,21.8-19.7,23-33.7C225.2,109,207.3,78.8,165.2,57.2"/>
<path class="st0" d="M72.6,122.4c-0.2-0.7-0.3-1.4-0.5-2.1c-7.1-38,45.8-40.9,45.8-40.9C86.7,67.9,66,81.9,56.8,95.3
	c-6.7,9.7-8.8,20.1-7.4,30.5c7.4,53.6,110.8,107.1,180.4,68.8c15.4-8.5,20.7-20,20.7-20C174,224.2,83.5,168.6,72.6,122.4"/>
<path class="st1" d="M27.5,53.2c-14.1,6.1-27.1,13-27.1,13c88.1-46.2,175.7,1.6,180.6,37c1,6.9-1.1,12-4.8,15.6
	c-12.8,12.4-45.5,8.3-45.5,8.3c11.7,11,44.6,16.4,59.7,4.4c2.9-2.3,5.1-5,6.5-7.9C214.1,87.7,119.1,13.6,27.5,53.2"/>
<path class="st0" d="M101.4,58.1C52.6,53.3,10,86.7,6.3,132.9c-0.3,3.6-0.3,7.2-0.2,10.7c1.3,25.7,14.9,48.9,35.7,64.1
	c-17.6-17.2-27.6-41.1-25.6-66.4c0.1-1.1,0.2-2.1,0.4-3.2c5.4-44.5,47.1-76.4,94.8-71.6c17.3,1.7,33,8,45.9,17.5
	C142.9,69.9,123.4,60.3,101.4,58.1"/>
</svg>
